<svg width="338" height="200" viewBox="0 0 338 200" fill="none" xmlns="http://www.w3.org/2000/svg">
<path d="M97.3125 142H113.938V124.938H125.938V110.688H113.688V87.625H97.875V110.375H75.875V109.25L102.375 51.8125H84.4375L57 110.688V124.938H97.3125V142Z" fill="black"/>
<path d="M169.312 49.875C147.688 49.875 135.438 66.8125 135.438 96.875C135.438 126.938 147.688 143.875 169.312 143.875C191 143.875 203.25 126.938 203.25 96.875C203.25 66.8125 191 49.875 169.312 49.875ZM152.812 99.125V96.875C152.812 75.9375 158.625 64.5625 169.312 64.5625C176.375 64.5625 181.25 69.4375 183.812 78.6875L152.812 99.125ZM185.875 94.75V96.875C185.875 117.875 180.062 129.188 169.312 129.188C162.312 129.188 157.438 124.375 154.875 115.188L185.875 94.75Z" fill="black"/>
<path d="M255.562 142H272.188V124.938H284.188V110.688H271.938V87.625H256.125V110.375H234.125V109.25L260.625 51.8125H242.688L215.25 110.688V124.938H255.562V142Z" fill="black"/>
<path d="M42.2969 189.312C42.2969 187.945 41.7188 187.203 40.6562 187.203C39.8359 187.203 39.2344 187.742 39.0547 188.664H38.8281C38.6484 187.734 38.1016 187.203 37.3203 187.203C36.4688 187.203 35.8828 187.742 35.6875 188.734H35.4609V187.383H33.5938V196H35.4062V190.086C35.4062 189.453 35.7422 189.047 36.2578 189.047C36.7656 189.047 37.0547 189.414 37.0547 190.031V196H38.8438V190.086C38.8438 189.453 39.1797 189.047 39.6875 189.047C40.1797 189.047 40.4844 189.414 40.4844 190.031V196H42.2969V189.312Z" fill="#00A3FF"/>
<path d="M47.9375 188.859C49.0156 188.859 49.6562 189.602 49.6562 190.836H46.1641C46.1641 189.602 46.8281 188.859 47.9375 188.859ZM49.7031 193.578C49.5469 194.141 48.8672 194.531 48.0078 194.531C46.8906 194.531 46.1641 193.797 46.1641 192.672V192.203H51.7188V191.016C51.7188 188.703 50.2578 187.203 47.9766 187.203C45.6328 187.203 44.0703 188.695 44.0703 190.953V192.336C44.0703 194.781 45.5078 196.188 48.0156 196.188C50.0156 196.188 51.5391 195.102 51.7188 193.578H49.7031Z" fill="#00A3FF"/>
<path d="M54.2422 189.898C54.2422 191.227 55.0625 192.07 56.6797 192.422L57.9688 192.695C58.875 192.891 59.2031 193.125 59.2031 193.609C59.2031 194.172 58.6406 194.539 57.7656 194.539C56.875 194.539 56.2969 194.211 56.1641 193.617H54.0547C54.1719 195.234 55.5312 196.18 57.7344 196.18C59.9766 196.18 61.3984 195.078 61.3984 193.336C61.3984 192.023 60.625 191.281 58.8828 190.922L57.5469 190.648C56.7109 190.477 56.3516 190.195 56.3516 189.727C56.3516 189.18 56.8906 188.812 57.7031 188.812C58.5 188.812 59.0625 189.164 59.1641 189.734H61.1797C61.0781 188.117 59.8047 187.18 57.7188 187.18C55.5859 187.18 54.2422 188.227 54.2422 189.898Z" fill="#00A3FF"/>
<path d="M64.1328 189.898C64.1328 191.227 64.9531 192.07 66.5703 192.422L67.8594 192.695C68.7656 192.891 69.0938 193.125 69.0938 193.609C69.0938 194.172 68.5312 194.539 67.6562 194.539C66.7656 194.539 66.1875 194.211 66.0547 193.617H63.9453C64.0625 195.234 65.4219 196.18 67.625 196.18C69.8672 196.18 71.2891 195.078 71.2891 193.336C71.2891 192.023 70.5156 191.281 68.7734 190.922L67.4375 190.648C66.6016 190.477 66.2422 190.195 66.2422 189.727C66.2422 189.18 66.7812 188.812 67.5938 188.812C68.3906 188.812 68.9531 189.164 69.0547 189.734H71.0703C70.9688 188.117 69.6953 187.18 67.6094 187.18C65.4766 187.18 64.1328 188.227 64.1328 189.898Z" fill="#00A3FF"/>
<path d="M76.3438 196.141C77.4688 196.141 78.375 195.664 78.7969 194.852H78.9844V196H81.0156V190.156C81.0156 188.273 79.7734 187.219 77.5625 187.219C75.5156 187.219 74.1016 188.227 73.9453 189.789H76.0234C76.2031 189.25 76.7578 188.922 77.5 188.922C78.3828 188.922 78.8984 189.359 78.8984 190.109V190.797L76.8828 190.922C74.7578 191.07 73.625 191.984 73.625 193.539C73.625 195.094 74.7188 196.141 76.3438 196.141ZM77.0781 194.43C76.25 194.43 75.7344 194.023 75.7344 193.383C75.7344 192.719 76.2422 192.336 77.2422 192.273L78.8984 192.172V192.797C78.8984 193.758 78.1406 194.43 77.0781 194.43Z" fill="#00A3FF"/>
<path d="M85.3906 192.188V190.945C85.3906 189.773 86.1016 189.039 87.2188 189.039C88.3438 189.039 89.0547 189.773 89.0547 190.945V192.188C89.0547 193.359 88.3438 194.094 87.2188 194.094C86.1016 194.094 85.3906 193.359 85.3906 192.188ZM87.1562 199.242C89.6719 199.242 91.2266 198 91.2266 195.992V187.383H89.125V188.852H88.9688C88.6875 187.875 87.7266 187.242 86.4766 187.242C84.4141 187.242 83.2031 188.594 83.2031 190.945V192.25C83.2031 194.578 84.3906 195.953 86.375 195.953C87.6562 195.953 88.6562 195.305 88.9219 194.336H89.0859V196.031C89.0859 197.109 88.4297 197.672 87.1875 197.672C86.2422 197.672 85.5547 197.32 85.4062 196.766H83.3203C83.4609 198.297 84.9219 199.242 87.1562 199.242Z" fill="#00A3FF"/>
<path d="M97.3906 188.859C98.4688 188.859 99.1094 189.602 99.1094 190.836H95.6172C95.6172 189.602 96.2812 188.859 97.3906 188.859ZM99.1562 193.578C99 194.141 98.3203 194.531 97.4609 194.531C96.3438 194.531 95.6172 193.797 95.6172 192.672V192.203H101.172V191.016C101.172 188.703 99.7109 187.203 97.4297 187.203C95.0859 187.203 93.5234 188.695 93.5234 190.953V192.336C93.5234 194.781 94.9609 196.188 97.4688 196.188C99.4688 196.188 100.992 195.102 101.172 193.578H99.1562Z" fill="#00A3FF"/>
<path d="M107.18 196.148C108.125 196.148 108.898 195.352 108.898 194.391C108.898 193.414 108.125 192.625 107.18 192.625C106.234 192.625 105.461 193.414 105.461 194.391C105.461 195.352 106.234 196.148 107.18 196.148ZM107.18 190.234C108.125 190.234 108.898 189.438 108.898 188.469C108.898 187.5 108.125 186.711 107.18 186.711C106.234 186.711 105.461 187.5 105.461 188.469C105.461 189.438 106.234 190.234 107.18 190.234Z" fill="black"/>
<path d="M128.461 184.727L127.219 189.82H129.305L130.367 184.727H128.461ZM124.797 184.727L123.555 189.82H125.641L126.703 184.727H124.797Z" fill="#8D8D8D"/>
<path d="M133.07 184.727V196H135.289V192.422H137.086C139.516 192.422 141.062 190.93 141.062 188.586C141.062 186.219 139.562 184.727 137.195 184.727H133.07ZM135.289 186.547H136.633C138.086 186.547 138.812 187.219 138.812 188.57C138.812 189.93 138.086 190.594 136.633 190.594H135.289V186.547Z" fill="black"/>
<path d="M145.578 196.141C146.703 196.141 147.609 195.664 148.031 194.852H148.219V196H150.25V190.156C150.25 188.273 149.008 187.219 146.797 187.219C144.75 187.219 143.336 188.227 143.18 189.789H145.258C145.438 189.25 145.992 188.922 146.734 188.922C147.617 188.922 148.133 189.359 148.133 190.109V190.797L146.117 190.922C143.992 191.07 142.859 191.984 142.859 193.539C142.859 195.094 143.953 196.141 145.578 196.141ZM146.312 194.43C145.484 194.43 144.969 194.023 144.969 193.383C144.969 192.719 145.477 192.336 146.477 192.273L148.133 192.172V192.797C148.133 193.758 147.375 194.43 146.312 194.43Z" fill="black"/>
<path d="M154.625 192.188V190.945C154.625 189.773 155.336 189.039 156.453 189.039C157.578 189.039 158.289 189.773 158.289 190.945V192.188C158.289 193.359 157.578 194.094 156.453 194.094C155.336 194.094 154.625 193.359 154.625 192.188ZM156.391 199.242C158.906 199.242 160.461 198 160.461 195.992V187.383H158.359V188.852H158.203C157.922 187.875 156.961 187.242 155.711 187.242C153.648 187.242 152.438 188.594 152.438 190.945V192.25C152.438 194.578 153.625 195.953 155.609 195.953C156.891 195.953 157.891 195.305 158.156 194.336H158.32V196.031C158.32 197.109 157.664 197.672 156.422 197.672C155.477 197.672 154.789 197.32 154.641 196.766H152.555C152.695 198.297 154.156 199.242 156.391 199.242Z" fill="black"/>
<path d="M166.625 188.859C167.703 188.859 168.344 189.602 168.344 190.836H164.852C164.852 189.602 165.516 188.859 166.625 188.859ZM168.391 193.578C168.234 194.141 167.555 194.531 166.695 194.531C165.578 194.531 164.852 193.797 164.852 192.672V192.203H170.406V191.016C170.406 188.703 168.945 187.203 166.664 187.203C164.32 187.203 162.758 188.695 162.758 190.953V192.336C162.758 194.781 164.195 196.188 166.703 196.188C168.703 196.188 170.227 195.102 170.406 193.578H168.391Z" fill="black"/>
<path d="M186.43 185.625C187.305 185.625 187.898 185.086 187.898 184.273C187.898 183.461 187.305 182.922 186.43 182.922C185.555 182.922 184.969 183.461 184.969 184.273C184.969 185.086 185.555 185.625 186.43 185.625ZM190.109 196V194.297H187.508V187.383H182.805V189.094H185.43V194.297H182.664V196H190.109Z" fill="black"/>
<path d="M192.711 189.898C192.711 191.227 193.531 192.07 195.148 192.422L196.438 192.695C197.344 192.891 197.672 193.125 197.672 193.609C197.672 194.172 197.109 194.539 196.234 194.539C195.344 194.539 194.766 194.211 194.633 193.617H192.523C192.641 195.234 194 196.18 196.203 196.18C198.445 196.18 199.867 195.078 199.867 193.336C199.867 192.023 199.094 191.281 197.352 190.922L196.016 190.648C195.18 190.477 194.82 190.195 194.82 189.727C194.82 189.18 195.359 188.812 196.172 188.812C196.969 188.812 197.531 189.164 197.633 189.734H199.648C199.547 188.117 198.273 187.18 196.188 187.18C194.055 187.18 192.711 188.227 192.711 189.898Z" fill="black"/>
<path d="M212.141 196H214.273V191.023C214.273 189.828 214.984 189.07 216.078 189.07C217.164 189.07 217.672 189.672 217.672 190.938V196H219.812V190.43C219.812 188.328 218.812 187.203 216.938 187.203C215.695 187.203 214.766 187.789 214.344 188.828H214.211V187.383H212.141V196Z" fill="black"/>
<path d="M225.867 196.188C228.297 196.188 229.828 194.711 229.828 192.359V191.031C229.828 188.68 228.297 187.203 225.867 187.203C223.438 187.203 221.906 188.68 221.906 191.031V192.359C221.906 194.711 223.438 196.188 225.867 196.188ZM225.867 188.953C227.016 188.953 227.727 189.781 227.727 191.117V192.273C227.727 193.602 227.016 194.438 225.867 194.438C224.719 194.438 224.008 193.602 224.008 192.273V191.117C224.008 189.781 224.719 188.953 225.867 188.953Z" fill="black"/>
<path d="M233.977 184.922V187.469H231.734V189.18H233.977V193.273C233.977 195.273 234.875 196.016 237.219 196.016C237.391 196.016 239.094 196 239.18 195.984V194.297C239.086 194.305 237.594 194.312 237.391 194.312C236.57 194.312 236.109 193.945 236.109 193.297V189.18H239.281V187.469H236.07V184.922H233.977Z" fill="black"/>
<path d="M254.062 196H256.203V189.18H259.633V187.469H256.156V186.719C256.156 186.078 256.57 185.75 257.375 185.75C257.578 185.75 259.469 185.758 259.633 185.773V184.203C259.508 184.188 257.523 184.172 257.312 184.172C254.984 184.172 254.062 184.906 254.062 186.859V187.469H251.766V189.18H254.062V196Z" fill="black"/>
<path d="M265.43 196.188C267.859 196.188 269.391 194.711 269.391 192.359V191.031C269.391 188.68 267.859 187.203 265.43 187.203C263 187.203 261.469 188.68 261.469 191.031V192.359C261.469 194.711 263 196.188 265.43 196.188ZM265.43 188.953C266.578 188.953 267.289 189.781 267.289 191.117V192.273C267.289 193.602 266.578 194.438 265.43 194.438C264.281 194.438 263.57 193.602 263.57 192.273V191.117C263.57 189.781 264.281 188.953 265.43 188.953Z" fill="black"/>
<path d="M279.156 187.383H277.023V192.367C277.023 193.555 276.312 194.312 275.219 194.312C274.133 194.312 273.625 193.711 273.625 192.445V187.383H271.484V192.961C271.484 195.062 272.484 196.188 274.359 196.188C275.602 196.188 276.531 195.594 276.953 194.555H277.086V196H279.156V187.383Z" fill="black"/>
<path d="M281.375 196H283.508V191.023C283.508 189.828 284.219 189.07 285.312 189.07C286.398 189.07 286.906 189.672 286.906 190.938V196H289.047V190.43C289.047 188.328 288.047 187.203 286.172 187.203C284.93 187.203 284 187.789 283.578 188.828H283.445V187.383H281.375V196Z" fill="black"/>
<path d="M293.188 190.945C293.188 189.758 293.867 189.039 294.977 189.039C296.078 189.039 296.75 189.758 296.75 190.945V192.367C296.75 193.555 296.078 194.281 294.977 194.281C293.867 194.281 293.188 193.555 293.188 192.367V190.945ZM296.727 194.516V196H298.93V184.102H296.695V188.852H296.539C296.25 187.82 295.391 187.242 294.148 187.242C292.18 187.242 291.008 188.602 291.008 190.945V192.43C291.008 194.773 292.18 196.133 294.148 196.133C295.414 196.133 296.266 195.562 296.562 194.516H296.727Z" fill="black"/>
<path d="M304.992 196.148C305.938 196.148 306.711 195.352 306.711 194.391C306.711 193.422 305.938 192.625 304.992 192.625C304.047 192.625 303.273 193.422 303.273 194.391C303.273 195.352 304.047 196.148 304.992 196.148Z" fill="black"/>
<path d="M313.359 189.82L314.602 184.727H312.508L311.445 189.82H313.359ZM317.023 189.82L318.266 184.727H316.172L315.117 189.82H317.023Z" fill="#8D8D8D"/>
<path d="M332.656 197.719C334.914 197.719 335.648 197.008 335.648 194.82V193.102C335.648 191.867 336.211 191.391 337.93 191.453V189.273C336.211 189.344 335.648 188.867 335.648 187.633V185.906C335.648 183.719 334.914 183.008 332.656 183.008H331.398V184.727H332.148C333.258 184.727 333.477 184.984 333.477 186.273V188.453C333.477 189.516 334.242 190.211 335.656 190.297V190.438C334.242 190.523 333.477 191.211 333.477 192.281V194.453C333.477 195.742 333.258 196 332.148 196H331.398V197.719H332.656Z" fill="black"/>
<path d="M7.39844 14.7188V13H6.64844C5.53906 13 5.32031 12.7422 5.32031 11.4531V9.28125C5.32031 8.21094 4.55469 7.52344 3.14062 7.4375V7.29688C4.55469 7.21094 5.32031 6.51562 5.32031 5.45312V3.27344C5.32031 1.98438 5.53906 1.72656 6.64844 1.72656H7.39844V0.0078125H6.14062C3.88281 0.0078125 3.14844 0.71875 3.14844 2.90625V4.63281C3.14844 5.86719 2.58594 6.34375 0.867188 6.27344V8.45312C2.58594 8.39062 3.14844 8.86719 3.14844 10.1016V11.8203C3.14844 14.0078 3.88281 14.7188 6.14062 14.7188H7.39844Z" fill="black"/>
<path d="M156.391 7.39062C156.188 5.28125 154.891 4.17188 152.664 4.17188C150.125 4.17188 148.719 5.60938 148.719 8.22656V9.13281C148.719 11.75 150.125 13.1875 152.664 13.1875C154.891 13.1875 156.203 12.0938 156.391 10.0391H154.297C154.148 10.9609 153.586 11.4062 152.648 11.4062C151.5 11.4062 150.867 10.5469 150.867 8.96875V8.39062C150.867 6.8125 151.5 5.95312 152.648 5.95312C153.578 5.95312 154.156 6.42188 154.297 7.39062H156.391Z" fill="#00A3FF"/>
<path d="M162.383 13.1875C164.812 13.1875 166.344 11.7109 166.344 9.35938V8.03125C166.344 5.67969 164.812 4.20312 162.383 4.20312C159.953 4.20312 158.422 5.67969 158.422 8.03125V9.35938C158.422 11.7109 159.953 13.1875 162.383 13.1875ZM162.383 5.95312C163.531 5.95312 164.242 6.78125 164.242 8.11719V9.27344C164.242 10.6016 163.531 11.4375 162.383 11.4375C161.234 11.4375 160.523 10.6016 160.523 9.27344V8.11719C160.523 6.78125 161.234 5.95312 162.383 5.95312Z" fill="#00A3FF"/>
<path d="M170.359 7.94531C170.359 6.75781 171.039 6.03906 172.148 6.03906C173.25 6.03906 173.922 6.75781 173.922 7.94531V9.36719C173.922 10.5547 173.25 11.2812 172.148 11.2812C171.039 11.2812 170.359 10.5547 170.359 9.36719V7.94531ZM173.898 11.5156V13H176.102V1.10156H173.867V5.85156H173.711C173.422 4.82031 172.562 4.24219 171.32 4.24219C169.352 4.24219 168.18 5.60156 168.18 7.94531V9.42969C168.18 11.7734 169.352 13.1328 171.32 13.1328C172.586 13.1328 173.438 12.5625 173.734 11.5156H173.898Z" fill="#00A3FF"/>
<path d="M182.266 5.85938C183.344 5.85938 183.984 6.60156 183.984 7.83594H180.492C180.492 6.60156 181.156 5.85938 182.266 5.85938ZM184.031 10.5781C183.875 11.1406 183.195 11.5312 182.336 11.5312C181.219 11.5312 180.492 10.7969 180.492 9.67188V9.20312H186.047V8.01562C186.047 5.70312 184.586 4.20312 182.305 4.20312C179.961 4.20312 178.398 5.69531 178.398 7.95312V9.33594C178.398 11.7812 179.836 13.1875 182.344 13.1875C184.344 13.1875 185.867 12.1016 186.047 10.5781H184.031Z" fill="#00A3FF"/>
<path d="M192.055 13.1484C193 13.1484 193.773 12.3516 193.773 11.3906C193.773 10.4141 193 9.625 192.055 9.625C191.109 9.625 190.336 10.4141 190.336 11.3906C190.336 12.3516 191.109 13.1484 192.055 13.1484ZM192.055 7.23438C193 7.23438 193.773 6.4375 193.773 5.46875C193.773 4.5 193 3.71094 192.055 3.71094C191.109 3.71094 190.336 4.5 190.336 5.46875C190.336 6.4375 191.109 7.23438 192.055 7.23438Z" fill="black"/>
</svg>
