<svg width="941" height="639" viewBox="0 0 941 639" fill="none" xmlns="http://www.w3.org/2000/svg">
<path d="M319.451 312.223C310.954 300.579 286.598 281.352 257.143 297.59C227.688 313.828 227.877 350.929 246.758 361.314" stroke="white" stroke-width="4"/>
<path d="M615.885 313.276C624.381 301.632 647.322 280.408 676.777 296.646C706.232 312.883 704.154 342.905 688.577 362.367" stroke="white" stroke-width="4"/>
<path d="M138.192 391.995C138.192 430.265 142.912 498.532 149.937 513.329C157.118 528.455 169.302 540.639 184.429 547.821C194.783 552.736 207.261 554.212 226.933 554.655M138.192 391.995C138.192 329.87 145.272 324.495 158.489 306.086C171.706 287.677 185.753 279.585 210.309 267.927C234.33 256.523 264.78 252.747 327.517 247.083C390.255 241.418 494.245 250.859 586.948 250.859C679.652 250.859 726.003 256.523 757.868 281.128C765.84 287.284 772.518 294.824 779.147 302.408C797.087 322.929 799.624 342.111 798.983 368.866M138.192 391.995C135.989 348.083 132.905 298.911 138.192 275.876C143.479 252.841 153.926 238.271 158.489 233.866C155.707 227.572 148.542 198.558 151.881 178.167C154.374 162.94 160.029 151.631 170.29 132.852M138.192 391.995C120.098 408.044 78.9053 457.324 58.8913 526.052C38.8772 594.779 28.8388 657.905 26.3213 678.045L914.679 679.461C909.959 653.342 896.459 580.524 880.221 524.635C863.983 468.747 818.762 410.719 798.182 388.691M798.983 368.866C802.46 353.884 808.472 316.389 804.696 286.261C800.92 256.134 786.09 236.26 779.147 230.09C781.842 225.999 786.853 209.226 785.343 174.862C784.634 158.739 778.738 144.677 770.525 132.852M798.983 368.866C798.84 374.832 798.539 381.174 798.215 387.992M170.29 132.852C137.303 126.558 84.5692 99.621 117.422 42.2223M170.29 132.852C176.193 122.049 187.788 112.523 194.313 106.418M117.422 42.2223C150.276 -15.1763 200.028 52.048 220.797 92.835M117.422 42.2223C131.112 37.5021 157.828 43.6384 170.29 62.5196C182.752 81.4007 189.924 100.597 194.313 106.418M220.797 92.835C210.97 95.8877 203.174 99.4558 197.667 103.586C196.553 104.422 195.433 105.37 194.313 106.418M220.797 92.835C244.663 85.4212 280.508 81.0467 324.643 79.0406C386.951 76.2084 585.675 79.0406 622.493 79.0406C652.362 79.0406 686.27 81.5259 709.346 88.0086M220.797 92.835C235.587 90.9117 269.982 92.5406 289.241 114.443C308.5 136.345 322.783 155.352 327.517 162.118M719.731 91.5152C721.055 92.0568 722.315 92.6187 723.507 93.2014C730.329 96.5368 738.954 101.723 747.581 108.649M719.731 91.5152C740.186 53.0563 789.214 -10.7392 821.689 41.7503M719.731 91.5152C716.602 90.2351 713.119 89.0684 709.346 88.0086M821.689 41.7503C854.165 94.2399 801.111 124.355 770.525 132.852M821.689 41.7503C816.969 41.7503 797.182 30.8937 775.902 50.7189C758.879 66.579 751.01 98.7798 747.581 108.649M770.525 132.852C763.885 123.292 755.732 115.194 747.581 108.649M226.933 554.655C235.374 554.845 245.139 554.845 256.629 554.845C256.629 554.845 397.973 529.356 489.431 529.356C563.62 529.356 670.634 546.128 708.402 552.462M226.933 554.655C225.832 565.103 228.916 587.887 250.063 595.44C276.496 604.88 377.982 600.16 460.587 602.992C543.192 605.824 562.074 599.688 589.451 602.992C616.829 606.296 647.039 613.849 668.28 602.992C685.273 594.307 702.109 565.686 708.402 552.462M708.402 552.462C717.194 553.936 722.234 554.845 722.234 554.845C757.09 554.845 765.078 554.845 777.059 545.594C780.057 543.279 782.745 540.59 785.06 537.593C794.311 525.612 802.558 513.151 799.032 473.327C795.896 437.91 797.132 410.806 798.182 388.691M798.182 388.691L798.215 387.992M798.182 388.691C798.193 388.457 798.204 388.224 798.215 387.992M709.346 88.0086C698.49 89.9683 673.095 96.8399 658.367 108.649C643.64 120.459 624.853 145.754 617.301 156.925" stroke="white" stroke-width="4"/>
<path fill-rule="evenodd" clip-rule="evenodd" d="M231.654 231.978C248.86 231.978 262.808 218.03 262.808 200.824C262.808 183.618 248.86 169.67 231.654 169.67C214.448 169.67 200.5 183.618 200.5 200.824C200.5 218.03 214.448 231.978 231.654 231.978ZM239.678 206.488C246.717 206.488 252.423 200.782 252.423 193.743C252.423 186.705 246.717 180.999 239.678 180.999C232.64 180.999 226.934 186.705 226.934 193.743C226.934 200.782 232.64 206.488 239.678 206.488Z" fill="white"/>
<path fill-rule="evenodd" clip-rule="evenodd" d="M708.402 231.978C691.197 231.978 677.249 218.03 677.249 200.824C677.249 183.618 691.197 169.67 708.402 169.67C725.608 169.67 739.556 183.618 739.556 200.824C739.556 218.03 725.608 231.978 708.402 231.978ZM700.378 206.488C693.339 206.488 687.633 200.782 687.633 193.743C687.633 186.705 693.339 180.999 700.378 180.999C707.417 180.999 713.123 186.705 713.123 193.743C713.123 200.782 707.417 206.488 700.378 206.488Z" fill="white"/>
<path d="M298.57 333.936C298.57 339.161 296.68 343.336 293.595 346.216C290.494 349.108 286.05 350.817 280.745 350.817C270.379 350.817 261.976 342.414 261.976 332.048C261.976 326.498 263.015 321.871 265.702 318.641C268.328 315.485 272.857 313.279 280.745 313.279C290.783 313.279 298.57 323.211 298.57 333.936Z" stroke="white" stroke-width="4"/>
<path d="M673.36 331.104C673.36 336.319 671.235 341.646 667.764 345.662C664.297 349.674 659.622 352.233 654.591 352.233C649.56 352.233 644.885 349.674 641.418 345.662C637.947 341.646 635.822 336.319 635.822 331.104C635.822 326.202 638.841 321.412 643.5 317.755C648.144 314.109 654.093 311.862 659.311 311.862C664.376 311.862 667.764 313.969 669.972 317.289C672.252 320.717 673.36 325.588 673.36 331.104Z" stroke="white" stroke-width="4"/>
<path d="M659.356 174.39L718.787 139.59L707.325 128.132L655.535 168.449L659.356 174.39Z" fill="white"/>
<path d="M285.421 173.446L225.989 138.646L237.451 127.188L289.241 167.505L285.421 173.446Z" fill="white"/>
</svg>
