<svg width="29" height="29" viewBox="0 0 29 29" fill="none" xmlns="http://www.w3.org/2000/svg">
<path fill-rule="evenodd" clip-rule="evenodd" d="M18.1529 28.4808C17.0882 28.4808 15.3294 28.4808 14.2136 28.4808C6.36363 28.4808 0 22.1172 0 14.2673C0 6.41734 6.36363 0.0537109 14.2136 0.0537109C22.0635 0.0537109 28.4271 6.41734 28.4271 14.2673C28.4271 17.2374 27.5161 19.9947 25.9584 22.275L21.0513 17.3679C21.4805 16.4228 21.7196 15.373 21.7196 14.2673C21.7196 10.1218 18.359 6.76123 14.2136 6.76123C10.0681 6.76123 6.70752 10.1218 6.70752 14.2673C6.70752 16.5114 7.69232 18.5254 9.25332 19.9009L18.1529 28.4808Z" fill="black"/>
<path fill-rule="evenodd" clip-rule="evenodd" d="M21.4719 28.5341L14.1256 21.1877H21.7544L29 28.4334L28.8993 28.5341H21.4719Z" fill="black"/>
</svg>
