<svg width="1019" height="1000" viewBox="0 0 1019 1000" fill="none" xmlns="http://www.w3.org/2000/svg">
<path fill-rule="evenodd" clip-rule="evenodd" d="M637.383 998.13C600 998.13 538.244 998.13 499.065 998.13C223.439 998.13 0 774.691 0 499.065C0 223.439 223.439 0 499.065 0C774.691 0 998.13 223.439 998.13 499.065C998.13 603.35 966.144 700.165 911.447 780.233L739.15 607.935C754.222 574.75 762.616 537.888 762.616 499.065C762.616 353.51 644.62 235.514 499.065 235.514C353.51 235.514 235.514 353.51 235.514 499.065C235.514 577.859 270.092 648.578 324.902 696.873L637.383 998.13Z" fill="white"/>
<path fill-rule="evenodd" clip-rule="evenodd" d="M753.92 1000L495.977 742.056H763.838L1018.25 996.464L1014.71 1000H753.92Z" fill="white"/>
</svg>
